TITLE ""
FILE "P1Q_t_0210-0219.mp3" MP3
  TRACK 01 AUDIO
    TITLE "P1Q_t_0210-0219_01"
    INDEX 01 00:00:00
  TRACK 02 AUDIO
    TITLE "P1Q_t_0210-0219_02"
    INDEX 01 00:01:22
  TRACK 03 AUDIO
    TITLE "P1Q_t_0210-0219_03"
    INDEX 01 00:01:41
  TRACK 04 AUDIO
    TITLE "P1Q_t_0210-0219_04"
    INDEX 01 00:04:47
  TRACK 05 AUDIO
    TITLE "P1Q_t_0210-0219_05"
    INDEX 01 00:04:67
  TRACK 06 AUDIO
    TITLE "P1Q_t_0210-0219_06"
    INDEX 01 00:08:39
  TRACK 07 AUDIO
    TITLE "P1Q_t_0210-0219_07"
    INDEX 01 00:09:09
  TRACK 08 AUDIO
    TITLE "P1Q_t_0210-0219_08"
    INDEX 01 00:10:24
  TRACK 09 AUDIO
    TITLE "P1Q_t_0210-0219_09"
    INDEX 01 00:10:48
  TRACK 10 AUDIO
    TITLE "P1Q_t_0210-0219_10"
    INDEX 01 00:13:60
  TRACK 11 AUDIO
    TITLE "P1Q_t_0210-0219_11"
    INDEX 01 00:14:07
  TRACK 12 AUDIO
    TITLE "P1Q_t_0210-0219_12"
    INDEX 01 00:19:04
  TRACK 13 AUDIO
    TITLE "P1Q_t_0210-0219_13"
    INDEX 01 00:19:51
  TRACK 14 AUDIO
    TITLE "P1Q_t_0210-0219_14"
    INDEX 01 00:21:05
  TRACK 15 AUDIO
    TITLE "P1Q_t_0210-0219_15"
    INDEX 01 00:21:26
  TRACK 16 AUDIO
    TITLE "P1Q_t_0210-0219_16"
    INDEX 01 00:24:36
  TRACK 17 AUDIO
    TITLE "P1Q_t_0210-0219_17"
    INDEX 01 00:24:58
  TRACK 18 AUDIO
    TITLE "P1Q_t_0210-0219_18"
    INDEX 01 00:29:22
  TRACK 19 AUDIO
    TITLE "P1Q_t_0210-0219_19"
    INDEX 01 00:29:67
  TRACK 20 AUDIO
    TITLE "P1Q_t_0210-0219_20"
    INDEX 01 00:30:64
  TRACK 21 AUDIO
    TITLE "P1Q_t_0210-0219_21"
    INDEX 01 00:31:09
  TRACK 22 AUDIO
    TITLE "P1Q_t_0210-0219_22"
    INDEX 01 00:35:64
  TRACK 23 AUDIO
    TITLE "P1Q_t_0210-0219_23"
    INDEX 01 00:36:12
  TRACK 24 AUDIO
    TITLE "P1Q_t_0210-0219_24"
    INDEX 01 00:39:65
  TRACK 25 AUDIO
    TITLE "P1Q_t_0210-0219_25"
    INDEX 01 00:40:37
  TRACK 26 AUDIO
    TITLE "P1Q_t_0210-0219_26"
    INDEX 01 00:41:50
  TRACK 27 AUDIO
    TITLE "P1Q_t_0210-0219_27"
    INDEX 01 00:41:72
  TRACK 28 AUDIO
    TITLE "P1Q_t_0210-0219_28"
    INDEX 01 00:45:68
  TRACK 29 AUDIO
    TITLE "P1Q_t_0210-0219_29"
    INDEX 01 00:46:12
  TRACK 30 AUDIO
    TITLE "P1Q_t_0210-0219_30"
    INDEX 01 00:50:34
  TRACK 31 AUDIO
    TITLE "P1Q_t_0210-0219_31"
    INDEX 01 00:51:08
  TRACK 32 AUDIO
    TITLE "P1Q_t_0210-0219_32"
    INDEX 01 00:52:31
  TRACK 33 AUDIO
    TITLE "P1Q_t_0210-0219_33"
    INDEX 01 00:52:52
  TRACK 34 AUDIO
    TITLE "P1Q_t_0210-0219_34"
    INDEX 01 00:56:11
  TRACK 35 AUDIO
    TITLE "P1Q_t_0210-0219_35"
    INDEX 01 00:56:30
  TRACK 36 AUDIO
    TITLE "P1Q_t_0210-0219_36"
    INDEX 01 01:02:72
  TRACK 37 AUDIO
    TITLE "P1Q_t_0210-0219_37"
    INDEX 01 01:03:44
  TRACK 38 AUDIO
    TITLE "P1Q_t_0210-0219_38"
    INDEX 01 01:04:69
  TRACK 39 AUDIO
    TITLE "P1Q_t_0210-0219_39"
    INDEX 01 01:05:16
  TRACK 40 AUDIO
    TITLE "P1Q_t_0210-0219_40"
    INDEX 01 01:07:03
  TRACK 41 AUDIO
    TITLE "P1Q_t_0210-0219_41"
    INDEX 01 01:07:22
  TRACK 42 AUDIO
    TITLE "P1Q_t_0210-0219_42"
    INDEX 01 01:10:68
  TRACK 43 AUDIO
    TITLE "P1Q_t_0210-0219_43"
    INDEX 01 01:11:42
  TRACK 44 AUDIO
    TITLE "P1Q_t_0210-0219_44"
    INDEX 01 01:12:65
  TRACK 45 AUDIO
    TITLE "P1Q_t_0210-0219_45"
    INDEX 01 01:13:11
  TRACK 46 AUDIO
    TITLE "P1Q_t_0210-0219_46"
    INDEX 01 01:18:08
  TRACK 47 AUDIO
    TITLE "P1Q_t_0210-0219_47"
    INDEX 01 01:18:28
  TRACK 48 AUDIO
    TITLE "P1Q_t_0210-0219_48"
    INDEX 01 01:23:16
  TRACK 49 AUDIO
    TITLE "P1Q_t_0210-0219_49"
    INDEX 01 01:23:61
  TRACK 50 AUDIO
    TITLE "P1Q_t_0210-0219_50"
    INDEX 01 01:25:01
  TRACK 51 AUDIO
    TITLE "P1Q_t_0210-0219_51"
    INDEX 01 01:25:22
  TRACK 52 AUDIO
    TITLE "P1Q_t_0210-0219_52"
    INDEX 01 01:28:38
  TRACK 53 AUDIO
    TITLE "P1Q_t_0210-0219_53"
    INDEX 01 01:28:58
  TRACK 54 AUDIO
    TITLE "P1Q_t_0210-0219_54"
    INDEX 01 01:32:34
  TRACK 55 AUDIO
    TITLE "P1Q_t_0210-0219_55"
    INDEX 01 01:33:04
  TRACK 56 AUDIO
    TITLE "P1Q_t_0210-0219_56"
    INDEX 01 01:34:19
  TRACK 57 AUDIO
    TITLE "P1Q_t_0210-0219_57"
    INDEX 01 01:34:47
  TRACK 58 AUDIO
    TITLE "P1Q_t_0210-0219_58"
    INDEX 01 01:39:32
  TRACK 59 AUDIO
    TITLE "P1Q_t_0210-0219_59"
    INDEX 01 01:39:50
  TRACK 60 AUDIO
    TITLE "P1Q_t_0210-0219_60"
    INDEX 01 01:44:00
